<svg display="none" xmlns="http://www.w3.org/2000/svg">
	<symbol id="dashboard" viewBox="0 0 16 16">
		<path d="M6.33333 8.83333H1.33333C1.11232 8.83333 0.900358 8.92113 0.744078 9.07741C0.587797 9.23369 0.5 9.44565 0.5 9.66667V14.6667C0.5 14.8877 0.587797 15.0996 0.744078 15.2559C0.900358 15.4122 1.11232 15.5 1.33333 15.5H6.33333C6.55435 15.5 6.76631 15.4122 6.92259 15.2559C7.07887 15.0996 7.16667 14.8877 7.16667 14.6667V9.66667C7.16667 9.44565 7.07887 9.23369 6.92259 9.07741C6.76631 8.92113 6.55435 8.83333 6.33333 8.83333ZM5.5 13.8333H2.16667V10.5H5.5V13.8333ZM14.6667 0.5H9.66667C9.44565 0.5 9.23369 0.587797 9.07741 0.744078C8.92113 0.900358 8.83333 1.11232 8.83333 1.33333V6.33333C8.83333 6.55435 8.92113 6.76631 9.07741 6.92259C9.23369 7.07887 9.44565 7.16667 9.66667 7.16667H14.6667C14.8877 7.16667 15.0996 7.07887 15.2559 6.92259C15.4122 6.76631 15.5 6.55435 15.5 6.33333V1.33333C15.5 1.11232 15.4122 0.900358 15.2559 0.744078C15.0996 0.587797 14.8877 0.5 14.6667 0.5ZM13.8333 5.5H10.5V2.16667H13.8333V5.5ZM14.6667 11.3333H13V9.66667C13 9.44565 12.9122 9.23369 12.7559 9.07741C12.5996 8.92113 12.3877 8.83333 12.1667 8.83333C11.9457 8.83333 11.7337 8.92113 11.5774 9.07741C11.4211 9.23369 11.3333 9.44565 11.3333 9.66667V11.3333H9.66667C9.44565 11.3333 9.23369 11.4211 9.07741 11.5774C8.92113 11.7337 8.83333 11.9457 8.83333 12.1667C8.83333 12.3877 8.92113 12.5996 9.07741 12.7559C9.23369 12.9122 9.44565 13 9.66667 13H11.3333V14.6667C11.3333 14.8877 11.4211 15.0996 11.5774 15.2559C11.7337 15.4122 11.9457 15.5 12.1667 15.5C12.3877 15.5 12.5996 15.4122 12.7559 15.2559C12.9122 15.0996 13 14.8877 13 14.6667V13H14.6667C14.8877 13 15.0996 12.9122 15.2559 12.7559C15.4122 12.5996 15.5 12.3877 15.5 12.1667C15.5 11.9457 15.4122 11.7337 15.2559 11.5774C15.0996 11.4211 14.8877 11.3333 14.6667 11.3333ZM6.33333 0.5H1.33333C1.11232 0.5 0.900358 0.587797 0.744078 0.744078C0.587797 0.900358 0.5 1.11232 0.5 1.33333V6.33333C0.5 6.55435 0.587797 6.76631 0.744078 6.92259C0.900358 7.07887 1.11232 7.16667 1.33333 7.16667H6.33333C6.55435 7.16667 6.76631 7.07887 6.92259 6.92259C7.07887 6.76631 7.16667 6.55435 7.16667 6.33333V1.33333C7.16667 1.11232 7.07887 0.900358 6.92259 0.744078C6.76631 0.587797 6.55435 0.5 6.33333 0.5ZM5.5 5.5H2.16667V2.16667H5.5V5.5Z"/>
	</symbol>
	<symbol id="people" viewBox="0 0 20 16">
		<path d="M10.25 8.18332C10.6946 7.79844 11.0513 7.32239 11.2957 6.78751C11.5401 6.25262 11.6667 5.67141 11.6666 5.08332C11.6666 3.97825 11.2277 2.91845 10.4463 2.13705C9.66486 1.35564 8.60505 0.916657 7.49998 0.916657C6.39491 0.916657 5.3351 1.35564 4.5537 2.13705C3.7723 2.91845 3.33331 3.97825 3.33331 5.08332C3.33331 5.67141 3.45981 6.25262 3.70425 6.78751C3.94869 7.32239 4.30533 7.79844 4.74998 8.18332C3.58343 8.71156 2.5937 9.5646 1.89913 10.6404C1.20456 11.7163 0.83454 12.9694 0.833313 14.25C0.833313 14.471 0.92111 14.683 1.07739 14.8392C1.23367 14.9955 1.44563 15.0833 1.66665 15.0833C1.88766 15.0833 2.09962 14.9955 2.2559 14.8392C2.41218 14.683 2.49998 14.471 2.49998 14.25C2.49998 12.9239 3.02676 11.6521 3.96445 10.7145C4.90213 9.77678 6.1739 9.24999 7.49998 9.24999C8.82606 9.24999 10.0978 9.77678 11.0355 10.7145C11.9732 11.6521 12.5 12.9239 12.5 14.25C12.5 14.471 12.5878 14.683 12.7441 14.8392C12.9003 14.9955 13.1123 15.0833 13.3333 15.0833C13.5543 15.0833 13.7663 14.9955 13.9226 14.8392C14.0788 14.683 14.1666 14.471 14.1666 14.25C14.1654 12.9694 13.7954 11.7163 13.1008 10.6404C12.4063 9.5646 11.4165 8.71156 10.25 8.18332ZM7.49998 7.58332C7.00553 7.58332 6.52218 7.4367 6.11105 7.162C5.69993 6.88729 5.3795 6.49685 5.19028 6.04003C5.00106 5.58322 4.95155 5.08055 5.04802 4.5956C5.14448 4.11065 5.38258 3.66519 5.73221 3.31556C6.08184 2.96593 6.5273 2.72782 7.01225 2.63136C7.49721 2.5349 7.99987 2.58441 8.45669 2.77362C8.9135 2.96284 9.30395 3.28328 9.57865 3.6944C9.85336 4.10552 9.99998 4.58887 9.99998 5.08332C9.99998 5.74637 9.73659 6.38225 9.26775 6.85109C8.79891 7.31993 8.16302 7.58332 7.49998 7.58332ZM15.6166 7.84999C16.15 7.24943 16.4983 6.50754 16.6198 5.71361C16.7413 4.91968 16.6308 4.10755 16.3015 3.37499C15.9721 2.64243 15.4381 2.02065 14.7637 1.58451C14.0893 1.14836 13.3032 0.916442 12.5 0.916657C12.279 0.916657 12.067 1.00445 11.9107 1.16073C11.7544 1.31701 11.6666 1.52898 11.6666 1.74999C11.6666 1.971 11.7544 2.18297 11.9107 2.33925C12.067 2.49553 12.279 2.58332 12.5 2.58332C13.163 2.58332 13.7989 2.84672 14.2677 3.31556C14.7366 3.7844 15 4.42028 15 5.08332C14.9988 5.52102 14.8827 5.95074 14.6634 6.32951C14.444 6.70827 14.129 7.02281 13.75 7.24166C13.6264 7.31292 13.5232 7.41471 13.4503 7.53727C13.3773 7.65984 13.3371 7.79907 13.3333 7.94166C13.3298 8.08313 13.3624 8.22315 13.428 8.34854C13.4936 8.47392 13.5901 8.58053 13.7083 8.65832L14.0333 8.87499L14.1416 8.93332C15.1461 9.40976 15.9936 10.1633 16.5841 11.1053C17.1747 12.0472 17.4838 13.1383 17.475 14.25C17.475 14.471 17.5628 14.683 17.7191 14.8392C17.8753 14.9955 18.0873 15.0833 18.3083 15.0833C18.5293 15.0833 18.7413 14.9955 18.8976 14.8392C19.0538 14.683 19.1416 14.471 19.1416 14.25C19.1485 12.9712 18.8282 11.7119 18.2112 10.5917C17.5942 9.47155 16.7011 8.52775 15.6166 7.84999Z"/>
	</symbol>
	<symbol id="operations" viewBox="0 0 18 18">
		<path d="M9.00002 3.99999C8.77901 3.99999 8.56705 4.08779 8.41077 4.24407C8.25449 4.40035 8.16669 4.61231 8.16669 4.83332V13.1667C8.16669 13.3877 8.25449 13.5996 8.41077 13.7559C8.56705 13.9122 8.77901 14 9.00002 14C9.22103 14 9.433 13.9122 9.58928 13.7559C9.74556 13.5996 9.83335 13.3877 9.83335 13.1667V4.83332C9.83335 4.61231 9.74556 4.40035 9.58928 4.24407C9.433 4.08779 9.22103 3.99999 9.00002 3.99999ZM4.83335 8.99999C4.61234 8.99999 4.40038 9.08779 4.2441 9.24407C4.08782 9.40035 4.00002 9.61231 4.00002 9.83332V13.1667C4.00002 13.3877 4.08782 13.5996 4.2441 13.7559C4.40038 13.9122 4.61234 14 4.83335 14C5.05437 14 5.26633 13.9122 5.42261 13.7559C5.57889 13.5996 5.66669 13.3877 5.66669 13.1667V9.83332C5.66669 9.61231 5.57889 9.40035 5.42261 9.24407C5.26633 9.08779 5.05437 8.99999 4.83335 8.99999ZM13.1667 7.33332C12.9457 7.33332 12.7337 7.42112 12.5774 7.5774C12.4212 7.73368 12.3334 7.94564 12.3334 8.16666V13.1667C12.3334 13.3877 12.4212 13.5996 12.5774 13.7559C12.7337 13.9122 12.9457 14 13.1667 14C13.3877 14 13.5997 13.9122 13.7559 13.7559C13.9122 13.5996 14 13.3877 14 13.1667V8.16666C14 7.94564 13.9122 7.73368 13.7559 7.5774C13.5997 7.42112 13.3877 7.33332 13.1667 7.33332ZM14.8334 0.666656H3.16669C2.50365 0.666656 1.86776 0.930049 1.39892 1.39889C0.930079 1.86773 0.666687 2.50362 0.666687 3.16666V14.8333C0.666687 15.4964 0.930079 16.1322 1.39892 16.6011C1.86776 17.0699 2.50365 17.3333 3.16669 17.3333H14.8334C15.4964 17.3333 16.1323 17.0699 16.6011 16.6011C17.07 16.1322 17.3334 15.4964 17.3334 14.8333V3.16666C17.3334 2.50362 17.07 1.86773 16.6011 1.39889C16.1323 0.930049 15.4964 0.666656 14.8334 0.666656ZM15.6667 14.8333C15.6667 15.0543 15.5789 15.2663 15.4226 15.4226C15.2663 15.5789 15.0544 15.6667 14.8334 15.6667H3.16669C2.94567 15.6667 2.73371 15.5789 2.57743 15.4226C2.42115 15.2663 2.33335 15.0543 2.33335 14.8333V3.16666C2.33335 2.94564 2.42115 2.73368 2.57743 2.5774C2.73371 2.42112 2.94567 2.33332 3.16669 2.33332H14.8334C15.0544 2.33332 15.2663 2.42112 15.4226 2.5774C15.5789 2.73368 15.6667 2.94564 15.6667 3.16666V14.8333Z"/>
	</symbol>
	<symbol id="planning" viewBox="0 0 14 18">
		<path d="M9.49998 10.6667H4.49998C4.27897 10.6667 4.067 10.7545 3.91072 10.9107C3.75444 11.067 3.66665 11.279 3.66665 11.5C3.66665 11.721 3.75444 11.933 3.91072 12.0892C4.067 12.2455 4.27897 12.3333 4.49998 12.3333H9.49998C9.72099 12.3333 9.93295 12.2455 10.0892 12.0892C10.2455 11.933 10.3333 11.721 10.3333 11.5C10.3333 11.279 10.2455 11.067 10.0892 10.9107C9.93295 10.7545 9.72099 10.6667 9.49998 10.6667ZM9.49998 7.33332H6.16665C5.94563 7.33332 5.73367 7.42112 5.57739 7.5774C5.42111 7.73368 5.33331 7.94564 5.33331 8.16666C5.33331 8.38767 5.42111 8.59963 5.57739 8.75591C5.73367 8.91219 5.94563 8.99999 6.16665 8.99999H9.49998C9.72099 8.99999 9.93295 8.91219 10.0892 8.75591C10.2455 8.59963 10.3333 8.38767 10.3333 8.16666C10.3333 7.94564 10.2455 7.73368 10.0892 7.5774C9.93295 7.42112 9.72099 7.33332 9.49998 7.33332ZM11.1666 2.33332H10.1833C10.0114 1.84703 9.69325 1.42582 9.27253 1.12744C8.85181 0.829055 8.3491 0.668106 7.83331 0.666656H6.16665C5.65086 0.668106 5.14815 0.829055 4.72743 1.12744C4.3067 1.42582 3.98857 1.84703 3.81665 2.33332H2.83331C2.17027 2.33332 1.53439 2.59672 1.06555 3.06556C0.596705 3.5344 0.333313 4.17028 0.333313 4.83332V14.8333C0.333313 15.4964 0.596705 16.1322 1.06555 16.6011C1.53439 17.0699 2.17027 17.3333 2.83331 17.3333H11.1666C11.8297 17.3333 12.4656 17.0699 12.9344 16.6011C13.4033 16.1322 13.6666 15.4964 13.6666 14.8333V4.83332C13.6666 4.17028 13.4033 3.5344 12.9344 3.06556C12.4656 2.59672 11.8297 2.33332 11.1666 2.33332ZM5.33331 3.16666C5.33331 2.94564 5.42111 2.73368 5.57739 2.5774C5.73367 2.42112 5.94563 2.33332 6.16665 2.33332H7.83331C8.05433 2.33332 8.26629 2.42112 8.42257 2.5774C8.57885 2.73368 8.66665 2.94564 8.66665 3.16666V3.99999H5.33331V3.16666ZM12 14.8333C12 15.0543 11.9122 15.2663 11.7559 15.4226C11.5996 15.5789 11.3877 15.6667 11.1666 15.6667H2.83331C2.6123 15.6667 2.40034 15.5789 2.24406 15.4226C2.08778 15.2663 1.99998 15.0543 1.99998 14.8333V4.83332C1.99998 4.61231 2.08778 4.40035 2.24406 4.24407C2.40034 4.08779 2.6123 3.99999 2.83331 3.99999H3.66665V4.83332C3.66665 5.05434 3.75444 5.2663 3.91072 5.42258C4.067 5.57886 4.27897 5.66666 4.49998 5.66666H9.49998C9.72099 5.66666 9.93295 5.57886 10.0892 5.42258C10.2455 5.2663 10.3333 5.05434 10.3333 4.83332V3.99999H11.1666C11.3877 3.99999 11.5996 4.08779 11.7559 4.24407C11.9122 4.40035 12 4.61231 12 4.83332V14.8333Z"/>
	</symbol>
	<symbol id="administration" viewBox="0 0 18 18">
		<path d="M17.0917 11.9833L13.325 8.225C13.4038 7.84115 13.4429 7.4502 13.4417 7.05834C13.4414 5.98388 13.1702 4.92684 12.6533 3.98491C12.1363 3.04298 11.3903 2.24657 10.4841 1.66929C9.57788 1.09201 8.54078 0.752493 7.46863 0.682121C6.39648 0.611749 5.32389 0.812794 4.35 1.26667C4.22662 1.32304 4.11885 1.40867 4.03608 1.51614C3.9533 1.6236 3.89801 1.74965 3.875 1.88334C3.85209 2.01533 3.86133 2.15089 3.90195 2.27855C3.94257 2.40621 4.01336 2.52219 4.10834 2.61667L7.73334 6.23334L6.23334 7.73334L2.61667 4.10834C2.52139 4.01484 2.40505 3.9456 2.27743 3.90644C2.14981 3.86729 2.01465 3.85936 1.88334 3.88334C1.75049 3.9055 1.62499 3.95953 1.51759 4.04081C1.41019 4.12208 1.32409 4.22818 1.26667 4.35C0.811273 5.32709 0.610403 6.40349 0.682745 7.47906C0.755087 8.55463 1.09829 9.59443 1.68043 10.5017C2.26257 11.409 3.06473 12.1544 4.01229 12.6684C4.95985 13.1824 6.02202 13.4484 7.1 13.4417C7.49186 13.4429 7.88281 13.4038 8.26667 13.325L12.025 17.0917C12.1025 17.1698 12.1946 17.2318 12.2962 17.2741C12.3977 17.3164 12.5067 17.3382 12.6167 17.3382C12.7267 17.3382 12.8356 17.3164 12.9372 17.2741C13.0387 17.2318 13.1309 17.1698 13.2083 17.0917C13.2864 17.0142 13.3484 16.922 13.3907 16.8205C13.4331 16.7189 13.4548 16.61 13.4548 16.5C13.4548 16.39 13.4331 16.2811 13.3907 16.1795C13.3484 16.078 13.2864 15.9858 13.2083 15.9083L9.125 11.825C9.02296 11.7236 8.89642 11.6504 8.75769 11.6124C8.61897 11.5745 8.47277 11.5731 8.33334 11.6083C7.93098 11.7161 7.51653 11.7721 7.1 11.775C6.47671 11.7805 5.85849 11.6626 5.28095 11.4282C4.70342 11.1937 4.17798 10.8473 3.73491 10.4088C3.29184 9.97042 2.9399 9.44866 2.69935 8.87363C2.4588 8.2986 2.33441 7.68165 2.33334 7.05834C2.33226 6.77919 2.35456 6.50043 2.4 6.225L5.66667 9.5C5.74414 9.57811 5.83631 9.64011 5.93785 9.68241C6.0394 9.72472 6.14833 9.7465 6.25834 9.7465C6.36835 9.7465 6.47727 9.72472 6.57882 9.68241C6.68037 9.64011 6.77253 9.57811 6.85 9.5L9.5 6.825C9.6502 6.66962 9.73416 6.46195 9.73416 6.24584C9.73416 6.02972 9.6502 5.82206 9.5 5.66667L6.25834 2.4C6.53382 2.35501 6.81253 2.33272 7.09167 2.33334C8.34337 2.33555 9.54305 2.83433 10.4274 3.7202C11.3117 4.60607 11.8083 5.80663 11.8083 7.05834C11.8054 7.47486 11.7494 7.88931 11.6417 8.29167C11.6064 8.43111 11.6078 8.5773 11.6458 8.71603C11.6837 8.85476 11.757 8.9813 11.8583 9.08334L15.9417 13.1667C16.0986 13.3236 16.3114 13.4117 16.5333 13.4117C16.7553 13.4117 16.9681 13.3236 17.125 13.1667C17.2819 13.0098 17.3701 12.7969 17.3701 12.575C17.3701 12.3531 17.2819 12.1403 17.125 11.9833H17.0917Z"/>
	</symbol>
	<symbol id="tracking" viewBox="0 0 18 18">
		<path d="M9.00002 15.6667H3.16669C2.94567 15.6667 2.73371 15.5789 2.57743 15.4226C2.42115 15.2663 2.33335 15.0544 2.33335 14.8333V3.16667C2.33335 2.94566 2.42115 2.7337 2.57743 2.57742C2.73371 2.42114 2.94567 2.33334 3.16669 2.33334H7.33335V4.83334C7.33335 5.49638 7.59675 6.13227 8.06559 6.60111C8.53443 7.06995 9.17031 7.33334 9.83335 7.33334H12.3334V8.16667C12.3334 8.38769 12.4212 8.59965 12.5774 8.75593C12.7337 8.91221 12.9457 9.00001 13.1667 9.00001C13.3877 9.00001 13.5997 8.91221 13.7559 8.75593C13.9122 8.59965 14 8.38769 14 8.16667V6.50001C14 6.50001 14 6.50001 14 6.45001C13.9913 6.37345 13.9746 6.29803 13.95 6.22501V6.15001C13.91 6.06432 13.8565 5.98556 13.7917 5.91667L8.79169 0.916672C8.7228 0.851852 8.64404 0.798406 8.55835 0.758338C8.53348 0.754805 8.50823 0.754805 8.48335 0.758338C8.3987 0.709789 8.30521 0.678625 8.20835 0.666672H3.16669C2.50365 0.666672 1.86776 0.930064 1.39892 1.3989C0.930079 1.86775 0.666687 2.50363 0.666687 3.16667V14.8333C0.666687 15.4964 0.930079 16.1323 1.39892 16.6011C1.86776 17.0699 2.50365 17.3333 3.16669 17.3333H9.00002C9.22103 17.3333 9.433 17.2455 9.58928 17.0893C9.74556 16.933 9.83335 16.721 9.83335 16.5C9.83335 16.279 9.74556 16.067 9.58928 15.9107C9.433 15.7545 9.22103 15.6667 9.00002 15.6667ZM9.00002 3.50834L11.1584 5.66667H9.83335C9.61234 5.66667 9.40038 5.57887 9.2441 5.42259C9.08782 5.26631 9.00002 5.05435 9.00002 4.83334V3.50834ZM4.83335 5.66667C4.61234 5.66667 4.40038 5.75447 4.2441 5.91075C4.08782 6.06703 4.00002 6.27899 4.00002 6.50001C4.00002 6.72102 4.08782 6.93298 4.2441 7.08926C4.40038 7.24554 4.61234 7.33334 4.83335 7.33334H5.66669C5.8877 7.33334 6.09966 7.24554 6.25594 7.08926C6.41222 6.93298 6.50002 6.72102 6.50002 6.50001C6.50002 6.27899 6.41222 6.06703 6.25594 5.91075C6.09966 5.75447 5.8877 5.66667 5.66669 5.66667H4.83335ZM17.0917 15.9083L16.1167 14.9417C16.4283 14.3977 16.5531 13.7666 16.4718 13.145C16.3905 12.5234 16.1077 11.9456 15.6667 11.5C15.2609 11.0797 14.7379 10.7914 14.1659 10.6726C13.5939 10.5538 12.9993 10.6101 12.4597 10.834C11.9201 11.0579 11.4605 11.4392 11.1407 11.9281C10.8208 12.417 10.6557 12.9909 10.6667 13.575C10.6638 14.0777 10.7924 14.5723 11.0397 15.01C11.287 15.4476 11.6444 15.813 12.0765 16.0698C12.5085 16.3267 13.0003 16.4662 13.5028 16.4744C14.0054 16.4826 14.5015 16.3593 14.9417 16.1167L15.9084 17.0917C15.9858 17.1698 16.078 17.2318 16.1795 17.2741C16.2811 17.3164 16.39 17.3382 16.5 17.3382C16.61 17.3382 16.719 17.3164 16.8205 17.2741C16.9221 17.2318 17.0142 17.1698 17.0917 17.0917C17.1698 17.0142 17.2318 16.922 17.2741 16.8205C17.3164 16.7189 17.3382 16.61 17.3382 16.5C17.3382 16.39 17.3164 16.2811 17.2741 16.1795C17.2318 16.078 17.1698 15.9858 17.0917 15.9083ZM14.45 14.45C14.212 14.6738 13.8976 14.7985 13.5709 14.7985C13.2441 14.7985 12.9297 14.6738 12.6917 14.45C12.4623 14.2165 12.3336 13.9023 12.3334 13.575C12.3316 13.4106 12.3632 13.2476 12.4263 13.0958C12.4893 12.944 12.5824 12.8065 12.7 12.6917C12.9222 12.4707 13.2201 12.3426 13.5334 12.3333C13.7018 12.323 13.8706 12.3476 14.0292 12.4055C14.1877 12.4635 14.3325 12.5536 14.4546 12.6702C14.5767 12.7868 14.6733 12.9273 14.7385 13.083C14.8037 13.2387 14.836 13.4062 14.8334 13.575C14.8265 13.9059 14.6886 14.2206 14.45 14.45ZM9.83335 9.00001H4.83335C4.61234 9.00001 4.40038 9.0878 4.2441 9.24408C4.08782 9.40036 4.00002 9.61232 4.00002 9.83334C4.00002 10.0544 4.08782 10.2663 4.2441 10.4226C4.40038 10.5789 4.61234 10.6667 4.83335 10.6667H9.83335C10.0544 10.6667 10.2663 10.5789 10.4226 10.4226C10.5789 10.2663 10.6667 10.0544 10.6667 9.83334C10.6667 9.61232 10.5789 9.40036 10.4226 9.24408C10.2663 9.0878 10.0544 9.00001 9.83335 9.00001ZM8.16669 14C8.3877 14 8.59966 13.9122 8.75594 13.7559C8.91222 13.5996 9.00002 13.3877 9.00002 13.1667C9.00002 12.9457 8.91222 12.7337 8.75594 12.5774C8.59966 12.4211 8.3877 12.3333 8.16669 12.3333H4.83335C4.61234 12.3333 4.40038 12.4211 4.2441 12.5774C4.08782 12.7337 4.00002 12.9457 4.00002 13.1667C4.00002 13.3877 4.08782 13.5996 4.2441 13.7559C4.40038 13.9122 4.61234 14 4.83335 14H8.16669Z"/>
	</symbol>
</svg>